<svg width="435" height="198" viewBox="0 0 435 198" fill="none" xmlns="http://www.w3.org/2000/svg">
<path d="M63.1858 59.312L65.3418 82.048L63.9698 82.44C52.7978 65.388 42.9978 59.116 33.5898 59.116C24.3778 59.116 18.3018 64.996 18.3018 72.836C18.3018 84.008 30.6498 88.124 43.5858 93.612C57.3058 99.492 71.4178 107.136 71.4178 126.54C71.4178 147.12 54.1698 155.94 33.0018 155.94C22.0258 155.94 11.0498 153.588 2.81775 150.452L0.465752 124.188L1.83775 123.796C13.0098 143.004 23.7898 152.412 36.5298 152.412C48.2898 152.412 52.7978 144.768 52.7978 137.516C52.7978 127.128 43.7818 122.424 30.8458 116.74C17.5178 110.86 2.03375 103.804 2.03375 83.812C2.03375 63.036 19.4778 55.588 38.8818 55.588C48.0938 55.588 57.3058 57.352 63.1858 59.312ZM84.8085 153V152.608C87.3565 146.14 89.3165 139.28 89.3165 124.188V39.516C89.3165 25.992 85.7885 18.152 80.1045 11.684V11.292L114.405 0.511989V123.992C114.405 139.084 116.561 146.14 119.697 152.608V153H84.8085ZM178.889 153H146.549L115.189 103.804L138.121 80.676C145.569 73.424 146.157 64.016 142.825 58.92V58.528H172.421V58.92C159.877 64.408 151.449 72.836 143.021 81.264L134.593 90.084L162.621 133.596C168.305 142.22 172.029 148.1 178.889 152.608V153ZM222.332 152.608V153H188.228V152.608C191.56 142.416 192.736 133.596 192.736 116.544V93.808C192.736 80.284 189.208 72.444 183.524 65.78V65.388L217.04 54.608V73.816L217.824 74.012C224.684 64.604 234.484 55.588 249.968 55.588C267.608 55.588 278.388 66.368 278.388 83.42V116.348C278.388 133.596 279.172 142.416 283.092 152.608V153H248.792V152.608C252.32 142.416 253.3 132.812 253.3 116.74V86.752C253.3 76.952 248.792 68.72 237.424 68.72C229.584 68.72 222.528 72.836 217.824 78.52V116.544C217.824 133.204 218.608 142.416 222.332 152.608ZM301.759 153V152.608C304.503 146.14 306.267 139.28 306.267 124.188V39.516C306.267 25.992 302.739 18.152 297.055 11.684V11.292L331.355 0.511989V123.992C331.355 139.084 333.315 146.14 336.059 152.608V153H301.759ZM350.176 197.1L349.98 175.148C358.996 175.54 378.4 175.344 385.26 157.704L356.84 84.792C350.764 69.308 347.824 63.82 343.512 58.92V58.528H383.3V58.92C380.556 63.036 378.988 73.816 383.888 86.556L398.196 124.188L413.092 86.164C417.992 74.208 414.268 63.232 410.74 58.92V58.528H434.26V58.92C427.4 66.368 423.48 72.052 417.992 85.576L389.376 157.312C376.44 188.672 365.66 193.964 350.176 197.1Z" fill="#131313"/>
</svg>
